#Comment line ignore any data following # character 
#Hierarchical Translation and Rotation (.htr) file 
[Header]	
#Header keywords are followed by a single value 
FileType HTR		#Single word string
DataType HTRS		#Translation followed by rotation and scale data
FileVersion 1		#integer
NumSegments 25		#integer
NumFrames 5		#integer
DataFrameRate 30		#integer, data frame rate in this file
EulerRotationOrder ZYX
CalibrationUnits mm
RotationUnits Degrees
GlobalAxisofGravity Y
BoneLengthAxis Y
ScaleFactor 1.00
[SegmentNames&Hierarchy]
#CHILD	PARENT
BN_Tick_Root GLOBAL
BN_Torso BN_Tick_Root
BN_L_Leg_Front01 BN_Torso
BN_L_Leg_Rear01 BN_Torso
BN_MetalTop BN_Torso
BN_Neck BN_Torso
BN_R_Leg_Front01 BN_Torso
BN_R_Leg_Rear01 BN_Torso
BN_Sack BN_Torso
BN_L_Leg_Front02 BN_L_Leg_Front01
BN_L_Leg_Front03 BN_L_Leg_Front02
BN_L_Leg_Rear02 BN_L_Leg_Rear01
BN_L_Leg_Rear03 BN_L_Leg_Rear02
BN_Head BN_Neck
BN_Needle BN_Head
BN_R_Leg_Front02 BN_R_Leg_Front01
BN_R_Leg_Front03 BN_R_Leg_Front02
BN_R_Leg_Rear02 BN_R_Leg_Rear01
BN_R_Leg_Rear03 BN_R_Leg_Rear02
BN_SackDef01 BN_Sack
BN_SackDef02 BN_Sack
BN_SackDef03 BN_Sack
BN_SackDef04 BN_Sack
BN_SackDef05 BN_Sack
BN_SackDef06 BN_Sack
[BasePosition]
#SegmentName Tx, Ty, Tz, Rx, Ry, Rz, BoneLength
BN_Tick_Root 0.000000 0.000000 0.000000 -90.000000 0.000000 0.000000 10.000000 
BN_Torso 0.000000 0.000000 0.000000 0.000000 0.000000 0.000000 10.000000 
BN_L_Leg_Front01 0.000000 0.000000 0.000000 0.000000 0.000000 0.000000 10.000000 
BN_L_Leg_Rear01 0.000000 0.000000 0.000000 0.000000 0.000000 0.000000 10.000000 
BN_MetalTop 0.000000 0.000000 0.000000 0.000000 0.000000 0.000000 10.000000 
BN_Neck 0.000000 0.000000 0.000000 0.000000 0.000000 0.000000 10.000000 
BN_R_Leg_Front01 0.000000 0.000000 0.000000 0.000000 0.000000 0.000000 10.000000 
BN_R_Leg_Rear01 0.000000 0.000000 0.000000 0.000000 0.000000 0.000000 10.000000 
BN_Sack 0.000000 0.000000 0.000000 0.000000 0.000000 0.000000 10.000000 
BN_L_Leg_Front02 0.000000 0.000000 0.000000 0.000000 0.000000 0.000000 10.000000 
BN_L_Leg_Front03 0.000000 0.000000 0.000000 0.000000 0.000000 0.000000 10.000000 
BN_L_Leg_Rear02 0.000000 0.000000 0.000000 0.000000 0.000000 0.000000 10.000000 
BN_L_Leg_Rear03 0.000000 0.000000 0.000000 0.000000 0.000000 0.000000 10.000000 
BN_Head 0.000000 0.000000 0.000000 0.000000 0.000000 0.000000 10.000000 
BN_Needle 0.000000 0.000000 0.000000 0.000000 0.000000 0.000000 10.000000 
BN_R_Leg_Front02 0.000000 0.000000 0.000000 0.000000 0.000000 0.000000 10.000000 
BN_R_Leg_Front03 0.000000 0.000000 0.000000 0.000000 0.000000 0.000000 10.000000 
BN_R_Leg_Rear02 0.000000 0.000000 0.000000 0.000000 0.000000 0.000000 10.000000 
BN_R_Leg_Rear03 0.000000 0.000000 0.000000 0.000000 0.000000 0.000000 10.000000 
BN_SackDef01 0.000000 0.000000 0.000000 0.000000 0.000000 0.000000 10.000000 
BN_SackDef02 0.000000 0.000000 0.000000 0.000000 0.000000 0.000000 10.000000 
BN_SackDef03 0.000000 0.000000 0.000000 0.000000 0.000000 0.000000 10.000000 
BN_SackDef04 0.000000 0.000000 0.000000 0.000000 0.000000 0.000000 10.000000 
BN_SackDef05 0.000000 0.000000 0.000000 0.000000 0.000000 0.000000 10.000000 
BN_SackDef06 0.000000 0.000000 0.000000 0.000000 0.000000 0.000000 10.000000 
#Beginning of Data. Separated by tabs
#Fr	Tx	Ty	Tz	Rx	Ry	Rz	SF
[BN_Tick_Root]
1 0.000000 0.000000 0.000000 0.000000 0.000000 -0.000020 0.000000
2 0.000000 0.000000 0.000000 0.000000 0.000000 -0.000020 0.000000
3 0.000000 0.000000 0.000000 0.000000 0.000000 -0.000020 0.000000
4 0.000000 0.000000 0.000000 0.000000 0.000000 -0.000020 0.000000
5 0.000000 0.000000 0.000000 0.000000 0.000000 -0.000020 0.000000
[BN_Torso]
1 3.529565 7.096940 219.094955 1.433986 0.462859 -0.492105 219.238281
2 3.411976 10.244905 233.053452 5.220936 1.682343 -1.783424 233.303467
3 3.245730 14.695511 252.787857 10.567636 3.411868 -3.608961 253.235443
4 3.055155 19.797480 275.410248 16.704180 5.390486 -5.705185 276.137787
5 2.864581 24.899445 298.032623 22.837563 7.366996 -7.800580 299.084656
[BN_L_Leg_Front01]
1 -68.477791 10.734189 -26.804373 -49.084614 49.981926 140.335861 74.316254
2 -68.477791 10.734189 -26.804373 -43.851917 55.763966 146.669693 74.316254
3 -68.477791 10.734189 -26.804373 -32.568710 62.810249 159.779266 74.316254
4 -68.477791 10.734189 -26.804373 -11.814024 68.017281 -176.962082 74.316254
5 -68.477791 10.734189 -26.804373 14.073937 68.396683 -148.123535 74.316254
[BN_L_Leg_Rear01]
1 -72.133743 -73.994843 -18.268616 66.505836 44.184250 -137.083923 104.939293
2 -72.133743 -73.994843 -18.268616 71.165413 43.286018 -131.419800 104.939293
3 -72.133743 -73.994843 -18.268616 77.006783 41.120190 -123.787575 104.939293
4 -72.133743 -73.994843 -18.268616 82.356369 37.520271 -115.904007 104.939293
5 -72.133743 -73.994843 -18.268616 86.192162 32.978695 -109.066177 104.939293
[BN_MetalTop]
1 0.000008 13.737477 26.403606 89.998573 -12.929121 -90.001572 29.763546
2 0.000008 13.737477 26.403606 89.998985 -12.929121 -90.001122 29.763546
3 0.000008 13.737477 26.403606 89.999374 -12.929118 -90.000656 29.763546
4 0.000008 13.737477 26.403606 89.999786 -12.929121 -90.000206 29.763546
5 0.000008 13.737477 26.403606 90.000198 -12.929121 -89.999771 29.763546
[BN_Neck]
1 0.000014 95.233284 10.002091 -90.003807 -65.297737 90.002632 95.757088
2 0.000014 95.233284 10.002091 -90.003807 -65.297737 90.002632 95.757088
3 0.000014 95.233284 10.002091 -90.003807 -65.297737 90.002632 95.757088
4 0.000014 95.233284 10.002091 -90.003807 -65.297737 90.002632 95.757088
5 0.000014 95.233284 10.002091 -90.003807 -65.297737 90.002632 95.757088
[BN_R_Leg_Front01]
1 68.477768 10.734107 -26.804314 44.359451 60.002132 40.448574 74.316193
2 68.477768 10.734107 -26.804314 35.116787 63.293732 33.100281 74.316193
3 68.477768 10.734107 -26.804314 18.657852 66.728271 19.232708 74.316193
4 68.477768 10.734107 -26.804314 -4.134230 68.140602 -0.650315 74.316193
5 68.477768 10.734107 -26.804314 -10.161880 64.822479 -2.448440 74.316193
[BN_R_Leg_Rear01]
1 72.133751 -73.994873 -18.268644 -65.705025 43.356224 -40.988483 104.939331
2 72.133751 -73.994873 -18.268644 -68.451584 40.642628 -41.537518 104.939331
3 72.133751 -73.994873 -18.268644 -72.304657 36.793293 -42.069454 104.939331
4 72.133751 -73.994873 -18.268644 -76.719688 32.383907 -42.371387 104.939331
5 72.133751 -73.994873 -18.268644 -81.163155 28.019001 -42.382030 104.939331
[BN_Sack]
1 -0.000000 -78.024918 33.657791 89.999641 -6.303734 -89.998108 84.974907
2 -0.000000 -78.024918 33.657791 89.999641 -6.303736 -89.998108 84.974907
3 -0.000000 -78.024918 33.657791 89.999641 -6.303734 -89.998108 84.974907
4 -0.000000 -78.024918 33.657791 89.999649 -6.303732 -89.998108 84.974907
5 -0.000000 -78.024918 33.657791 89.999641 -6.303736 -89.998108 84.974907
[BN_L_Leg_Front02]
1 142.805023 -0.000015 -0.000104 0.183235 0.296967 -92.703934 142.805023
2 142.805023 -0.000015 -0.000104 0.183235 0.296967 -92.703934 142.805023
3 142.805023 -0.000015 -0.000104 0.183235 0.296967 -92.703934 142.805023
4 142.805023 -0.000015 -0.000104 0.183235 0.296967 -92.703934 142.805023
5 142.805023 -0.000015 -0.000104 0.183235 0.296967 -92.703934 142.805023
[BN_L_Leg_Front03]
1 124.143021 -0.000045 0.000007 0.353362 -0.441911 100.329872 124.143021
2 124.143021 -0.000045 0.000007 0.353362 -0.441911 100.329872 124.143021
3 124.143021 -0.000045 0.000007 0.353362 -0.441911 100.329872 124.143021
4 124.143021 -0.000045 0.000007 0.353362 -0.441911 100.329872 124.143021
5 124.143021 -0.000045 0.000007 0.353362 -0.441911 100.329872 124.143021
[BN_L_Leg_Rear02]
1 139.939041 0.000075 -0.000022 0.143457 -0.186082 75.574715 139.939041
2 139.939041 0.000075 -0.000022 0.143457 -0.186082 75.574715 139.939041
3 139.939041 0.000075 -0.000022 0.143457 -0.186082 75.574715 139.939041
4 139.939041 0.000075 -0.000022 0.143457 -0.186082 75.574715 139.939041
5 139.939041 0.000075 -0.000022 0.143457 -0.186082 75.574715 139.939041
[BN_L_Leg_Rear03]
1 142.839615 0.000179 -0.000060 0.000003 -0.000003 -88.940514 142.839615
2 142.839615 0.000179 -0.000060 0.000003 -0.000003 -88.940514 142.839615
3 142.839615 0.000179 -0.000060 0.000003 -0.000003 -88.940514 142.839615
4 142.839615 0.000179 -0.000060 0.000003 -0.000003 -88.940514 142.839615
5 142.839615 0.000179 -0.000060 0.000003 -0.000003 -88.940514 142.839615
[BN_Head]
1 57.062447 -0.000030 0.000000 0.001660 0.001660 0.001660 57.062447
2 57.062447 -0.000030 0.000000 0.001560 0.001754 -6.713475 57.062447
3 57.062447 -0.000030 0.000000 0.001332 0.001956 -21.480913 57.062447
4 57.062447 -0.000030 0.000000 0.001061 0.002094 -36.248348 57.062447
5 57.062447 -0.000030 0.000000 0.000937 0.002152 -42.961895 57.062447
[BN_Needle]
1 33.915161 69.677544 -0.000060 0.000003 0.000030 87.896805 77.493217
2 33.915161 69.677544 -0.000060 0.000003 0.000030 87.896805 77.493217
3 33.915161 69.677544 -0.000060 0.000003 0.000030 87.896805 77.493217
4 33.915161 69.677544 -0.000060 0.000003 0.000030 87.896805 77.493217
5 33.915161 69.677544 -0.000060 0.000003 0.000030 87.896805 77.493217
[BN_R_Leg_Front02]
1 142.804947 -0.000060 0.000060 -0.193036 0.296610 92.706657 142.804947
2 142.804947 -0.000060 0.000060 -0.193036 0.296610 92.706657 142.804947
3 142.804947 -0.000060 0.000060 -0.193036 0.296610 92.706657 142.804947
4 142.804947 -0.000060 0.000060 -0.193036 0.296610 92.706657 142.804947
5 142.804947 -0.000060 0.000060 -0.193036 0.296610 92.706657 142.804947
[BN_R_Leg_Front03]
1 124.143005 -0.000060 -0.000156 -0.353343 -0.441338 -100.329697 124.143005
2 124.143005 -0.000060 -0.000156 -0.353343 -0.441338 -100.329697 124.143005
3 124.143005 -0.000060 -0.000156 -0.353343 -0.441338 -100.329697 124.143005
4 124.143005 -0.000060 -0.000156 -0.353343 -0.441338 -100.329697 124.143005
5 124.143005 -0.000060 -0.000156 -0.353343 -0.441338 -100.329697 124.143005
[BN_R_Leg_Rear02]
1 139.939011 -0.000149 0.000015 -0.130192 -0.173712 -75.585640 139.939011
2 139.939011 -0.000149 0.000015 -0.130192 -0.173712 -75.585640 139.939011
3 139.939011 -0.000149 0.000015 -0.130192 -0.173712 -75.585640 139.939011
4 139.939011 -0.000149 0.000015 -0.130192 -0.173712 -75.585640 139.939011
5 139.939011 -0.000149 0.000015 -0.130192 -0.173712 -75.585640 139.939011
[BN_R_Leg_Rear03]
1 142.839417 0.000075 0.000119 0.000002 0.000017 88.940636 142.839417
2 142.839417 0.000075 0.000119 0.000002 0.000017 88.940636 142.839417
3 142.839417 0.000075 0.000119 0.000002 0.000017 88.940636 142.839417
4 142.839417 0.000075 0.000119 0.000002 0.000017 88.940636 142.839417
5 142.839417 0.000075 0.000119 0.000002 0.000017 88.940636 142.839417
[BN_SackDef01]
1 249.782272 -3.760844 42.949425 -128.408218 -44.374973 -11.740845 253.475800
2 249.782272 -3.760844 42.949425 -128.408218 -44.374973 -11.740845 253.475800
3 249.782272 -3.760844 42.949425 -128.408218 -44.374973 -11.740845 253.475800
4 249.782272 -3.760844 42.949425 -128.408218 -44.374973 -11.740845 253.475800
5 249.782272 -3.760844 42.949425 -128.408218 -44.374973 -11.740845 253.475800
[BN_SackDef02]
1 138.789795 -62.131748 45.674385 32.077126 -27.375721 -88.781525 158.773758
2 138.789795 -62.131748 45.674385 32.077126 -27.375721 -88.781525 158.773758
3 138.789795 -62.131748 45.674385 32.077126 -27.375721 -88.781525 158.773758
4 138.789795 -62.131748 45.674385 32.077126 -27.375721 -88.781525 158.773758
5 138.789795 -62.131748 45.674385 32.077126 -27.375721 -88.781525 158.773758
[BN_SackDef03]
1 249.782272 -3.760785 -42.949661 18.144459 44.375008 -11.740894 253.475845
2 249.782272 -3.760785 -42.949661 18.144459 44.375008 -11.740894 253.475845
3 249.782272 -3.760785 -42.949661 18.144459 44.375008 -11.740894 253.475845
4 249.782272 -3.760785 -42.949661 18.144459 44.375008 -11.740894 253.475845
5 249.782272 -3.760785 -42.949661 18.144459 44.375008 -11.740894 253.475845
[BN_SackDef04]
1 138.789780 -62.131645 -45.674473 146.059982 27.375723 -88.781555 158.773743
2 138.789780 -62.131645 -45.674473 146.059982 27.375723 -88.781555 158.773743
3 138.789780 -62.131645 -45.674473 146.059982 27.375723 -88.781555 158.773743
4 138.789780 -62.131645 -45.674473 146.059982 27.375723 -88.781555 158.773743
5 138.789780 -62.131645 -45.674473 146.059982 27.375723 -88.781555 158.773743
[BN_SackDef05]
1 118.790161 46.167137 -63.831196 0.155741 51.314110 90.605110 142.537460
2 118.790161 46.167137 -63.831196 0.155741 51.314110 90.605110 142.537460
3 118.790161 46.167137 -63.831196 0.155741 51.314110 90.605110 142.537460
4 118.790161 46.167137 -63.831196 0.155741 51.314110 90.605110 142.537460
5 118.790161 46.167137 -63.831196 0.155741 51.314110 90.605110 142.537460
[BN_SackDef06]
1 118.790207 46.167194 63.831219 152.058487 -51.314072 90.605019 142.537537
2 118.790207 46.167194 63.831219 152.058487 -51.314072 90.605019 142.537537
3 118.790207 46.167194 63.831219 152.058487 -51.314072 90.605019 142.537537
4 118.790207 46.167194 63.831219 152.058487 -51.314072 90.605019 142.537537
5 118.790207 46.167194 63.831219 152.058487 -51.314072 90.605019 142.537537
